<?xml version="1.0" standalone="no"?>
<!DOCTYPE svg PUBLIC "-//W3C//DTD SVG 20010904//EN"
 "http://www.w3.org/TR/2001/REC-SVG-20010904/DTD/svg10.dtd">
<svg version="1.0" xmlns="http://www.w3.org/2000/svg"
 width="1920.000000pt" height="1080.000000pt" viewBox="0 0 1920.000000 1080.000000"
 preserveAspectRatio="xMidYMid meet">

<g transform="translate(0.000000,1080.000000) scale(0.100000,-0.100000)"
fill="#000000" stroke="none">
<path d="M0 5400 l0 -5400 9600 0 9600 0 0 5400 0 5400 -9600 0 -9600 0 0
-5400z m9810 1799 c448 -55 875 -280 1155 -608 374 -439 522 -1003 409 -1561
-75 -364 -289 -735 -569 -982 -432 -382 -1011 -536 -1575 -422 -120 25 -309
90 -426 148 -622 305 -1014 934 -1014 1626 0 207 25 363 92 568 213 658 801
1141 1498 1231 95 12 333 13 430 0z"/>
<path d="M9415 7120 c-772 -88 -1382 -663 -1521 -1435 -25 -139 -25 -431 0
-570 66 -366 227 -676 486 -935 259 -259 569 -420 935 -486 139 -25 431 -25
570 0 366 66 676 227 935 486 259 259 420 569 486 935 25 139 25 431 0 570
-66 366 -227 676 -486 935 -258 258 -574 422 -930 484 -114 20 -365 28 -475
16z m211 -192 l-7 -73 63 68 c63 68 63 69 111 65 l47 -3 -61 -68 -61 -67 51
-94 c28 -52 51 -97 51 -100 0 -3 -22 -6 -50 -6 l-50 0 -33 66 -34 67 -21 -28
c-13 -16 -22 -42 -22 -62 0 -33 -1 -34 -37 -31 l-38 3 3 75 c1 41 5 117 8 168
l6 92 40 0 41 0 -7 -72z m-194 16 c15 -15 31 -39 37 -54 9 -27 8 -28 -27 -35
-31 -6 -39 -3 -55 19 -36 50 -127 23 -127 -38 0 -44 12 -85 32 -105 38 -41
118 -17 118 36 0 12 4 23 9 23 5 0 23 3 40 6 31 6 31 6 31 -36 0 -114 -177
-173 -259 -86 -26 27 -51 104 -51 153 0 40 20 93 43 112 57 47 162 49 209 5z
m608 -7 c108 -31 115 -34 112 -57 -4 -41 -16 -44 -96 -22 -41 11 -77 18 -80
14 -3 -3 -6 -16 -6 -28 0 -19 8 -25 43 -34 86 -22 92 -26 89 -51 -4 -39 -17
-43 -80 -25 -32 9 -63 16 -69 16 -11 0 -28 -49 -20 -56 2 -3 37 -14 78 -25 41
-11 75 -22 76 -23 8 -8 -21 -67 -31 -63 -6 2 -59 16 -117 32 l-107 29 24 85
c13 47 33 121 45 164 12 42 22 77 23 77 0 0 53 -15 116 -33z m-951 -54 c24
-61 101 -277 101 -284 0 -9 -61 -31 -68 -25 -6 7 -112 295 -112 306 0 7 41 27
61 29 4 1 12 -11 18 -26z m1338 -116 c58 -52 21 -157 -56 -157 -24 0 -25 -1
-10 -33 8 -18 7 -37 -6 -80 l-16 -56 -35 17 c-28 13 -34 20 -29 37 3 11 9 38
11 60 5 37 3 41 -26 58 -17 9 -36 17 -41 17 -5 0 -19 -20 -31 -45 -25 -50 -27
-51 -69 -30 l-30 16 29 52 c16 29 52 95 81 148 l51 96 77 -40 c43 -22 88 -49
100 -60z m-1470 67 c16 -25 16 -27 -8 -45 -13 -10 -32 -21 -41 -25 -10 -3 -18
-9 -18 -14 0 -5 27 -59 61 -120 34 -61 60 -113 58 -114 -2 -2 -18 -11 -35 -19
l-31 -16 -62 114 c-35 63 -66 115 -69 115 -4 0 -22 -9 -40 -20 -43 -26 -49
-25 -67 9 l-15 29 118 65 c64 36 120 66 124 66 4 1 15 -11 25 -25z m1679 -209
c74 -43 105 -106 84 -170 l-12 -35 -29 21 c-21 15 -29 29 -29 50 0 53 -80 107
-96 64 -6 -14 -1 -22 59 -98 15 -19 31 -51 34 -71 12 -73 -89 -125 -157 -79
-86 57 -120 118 -100 178 6 19 14 35 17 35 3 0 18 -9 34 -21 22 -15 28 -26 23
-43 -9 -39 57 -102 94 -89 21 8 14 28 -28 80 -69 87 -73 132 -18 178 37 32 70
32 124 0z m-1953 -1 l31 -17 -29 -24 c-17 -13 -38 -22 -49 -19 -25 6 -72 -19
-87 -45 -9 -17 -8 -25 5 -37 14 -14 21 -12 73 21 76 46 103 53 142 33 66 -34
70 -101 11 -169 -52 -59 -113 -84 -164 -67 -49 16 -54 29 -21 56 20 16 37 21
55 17 50 -10 120 76 75 93 -8 3 -40 -10 -72 -30 -86 -53 -146 -48 -179 15 -20
40 -11 78 29 123 58 64 118 81 180 50z m1083 -75 c120 -16 239 -54 361 -114
316 -155 534 -423 630 -773 24 -89 27 -114 27 -287 1 -199 -3 -230 -51 -380
-121 -378 -437 -676 -828 -781 -406 -109 -844 8 -1144 307 -168 166 -272 357
-333 609 -9 37 -13 118 -12 245 0 171 3 199 26 285 72 267 227 500 439 660
145 109 370 204 544 229 87 12 252 13 341 0z m-1444 -1494 c30 -96 29 -126 -4
-162 -38 -41 -102 -38 -134 5 -9 12 -12 10 -17 -15 -5 -23 -19 -39 -57 -62
-28 -17 -52 -31 -54 -31 -4 0 -26 58 -26 66 0 2 21 17 46 35 44 30 46 33 41
71 -3 22 -8 42 -11 45 -3 3 -30 -1 -60 -10 l-55 -15 -12 35 c-6 19 -9 36 -7
37 10 10 286 94 302 93 15 -2 25 -22 48 -92z m2901 26 c4 -4 4 -22 1 -39 -5
-25 -12 -32 -29 -32 -53 0 -60 13 -39 78 4 12 50 7 67 -7z m-209 -59 c2 -4 -2
-22 -9 -40 -11 -25 -20 -32 -41 -32 -38 0 -64 -27 -64 -66 0 -37 20 -61 67
-80 46 -20 73 -17 100 8 29 27 30 71 2 96 -19 19 -19 22 -5 57 l16 38 33 -25
c69 -54 70 -152 2 -226 -32 -35 -37 -37 -97 -37 -107 1 -198 70 -198 152 0 61
41 136 85 154 26 10 102 11 109 1z m-2609 -182 c8 -16 15 -32 15 -35 0 -5
-286 -145 -296 -145 -5 0 -36 61 -32 65 7 6 283 144 290 144 4 1 14 -12 23
-29z m60 -136 c38 -18 80 -74 90 -122 14 -70 -58 -160 -151 -188 -55 -16 -96
-5 -141 38 -65 63 -67 141 -5 210 64 71 141 94 207 62z m2555 -69 c34 -18 36
-26 14 -60 -19 -29 -31 -31 -62 -7 -23 18 -23 18 -5 50 10 18 19 32 21 32 2 0
16 -7 32 -15z m-138 -113 c54 -20 98 -39 98 -42 -1 -3 -12 -18 -26 -34 -25
-28 -26 -29 -59 -13 -32 15 -33 15 -57 -11 -62 -70 -61 -66 -42 -105 17 -35
17 -36 -9 -66 l-25 -31 -45 78 c-25 42 -66 112 -91 155 l-46 77 36 40 36 39
66 -25 c37 -14 111 -42 164 -62z m-2108 -136 c84 -61 109 -90 109 -128 0 -37
-41 -78 -79 -78 -27 0 -28 -3 -13 -32 24 -45 -19 -108 -75 -108 -32 0 -104 41
-180 103 l-29 23 97 132 c54 73 100 132 103 132 3 0 33 -20 67 -44z m1666 -81
c64 -33 118 -150 100 -216 -24 -86 -139 -136 -220 -94 -66 34 -119 146 -100
215 23 86 140 137 220 95z m-1388 -89 c102 -47 126 -75 112 -129 -7 -29 -57
-77 -80 -77 -17 0 -17 -5 -4 -31 8 -14 7 -37 -1 -78 l-11 -60 -35 17 -34 16 6
56 c7 61 4 66 -48 88 -28 12 -29 12 -50 -38 -22 -53 -27 -56 -69 -37 l-27 12
66 153 c37 83 70 152 74 152 4 0 50 -20 101 -44z m1063 -50 c29 -13 75 -66 75
-87 0 -4 -16 -10 -36 -14 -29 -5 -40 -2 -56 14 -41 45 -118 11 -118 -52 0 -42
29 -99 59 -113 45 -23 101 13 101 64 0 13 11 22 35 29 33 10 35 10 41 -13 14
-56 -19 -117 -79 -145 -90 -40 -168 -16 -207 67 -59 121 -27 221 81 252 48 14
65 14 104 -2z m-711 -57 c9 -8 67 -341 60 -348 -1 -2 -20 1 -41 6 -34 8 -38
12 -41 45 -3 39 -6 41 -93 53 -44 7 -46 6 -59 -24 -9 -24 -18 -31 -39 -30 -64
1 -64 4 28 167 l86 152 45 -6 c25 -4 49 -10 54 -15z m441 -116 c4 -65 8 -140
9 -168 l1 -50 -57 -3 -57 -3 -35 68 c-19 37 -46 88 -61 113 l-26 45 6 -117 7
-118 -40 0 -39 0 -9 165 -9 165 31 6 c74 14 82 7 144 -109 31 -59 60 -110 63
-114 4 -3 5 21 2 55 -3 34 -7 89 -10 122 l-5 60 39 0 39 0 7 -117z"/>
<path d="M10267 6735 l-16 -34 36 -21 c40 -23 61 -23 76 1 15 24 2 46 -41 68
l-39 20 -16 -34z"/>
<path d="M9388 6450 c-158 -33 -273 -80 -403 -165 -88 -57 -262 -236 -319
-327 -244 -394 -223 -889 53 -1255 270 -358 730 -518 1162 -404 518 137 869
636 819 1166 -26 268 -127 483 -320 676 -179 179 -343 267 -589 313 -112 21
-292 20 -403 -4z m172 -568 l0 -459 -25 -23 c-14 -13 -25 -29 -25 -35 0 -6 11
-22 25 -35 l25 -23 0 -460 0 -459 -67 7 c-84 9 -189 35 -268 67 l-60 24 -3
876 c-2 693 1 878 10 886 39 31 257 90 341 91 l47 1 0 -458z m316 422 c47 -13
103 -33 125 -44 l39 -20 -2 -876 -3 -876 -59 -24 c-33 -13 -63 -24 -68 -24 -4
0 -8 194 -8 430 l0 430 -65 0 -65 0 0 -450 0 -450 -27 0 c-16 0 -45 -3 -65 -6
l-38 -7 0 978 0 978 75 -7 c42 -4 114 -18 161 -32z m-786 -496 l0 -382 -30
-31 -30 -31 30 -29 30 -29 0 -383 c0 -211 -3 -383 -6 -383 -3 0 -35 21 -70 47
l-64 47 0 333 0 333 -60 0 -60 0 0 -255 c0 -165 -4 -255 -10 -255 -13 0 -74
94 -106 163 -24 52 -24 53 -24 412 l0 360 29 62 c63 133 169 262 290 354 35
27 68 49 72 49 5 0 9 -172 9 -382z m1101 334 c78 -59 171 -158 222 -234 48
-73 99 -180 89 -189 -11 -10 -112 -52 -115 -48 -1 2 -17 34 -35 71 -18 36 -49
88 -68 115 l-34 48 0 -535 1 -535 25 30 c13 17 43 67 67 112 23 46 47 83 53
83 10 0 103 -38 112 -45 5 -4 -65 -142 -90 -179 -59 -86 -140 -174 -212 -232
-44 -35 -84 -64 -88 -64 -4 0 -8 371 -8 825 0 454 4 825 9 825 4 0 37 -22 72
-48z"/>
<path d="M9348 6176 c-20 -6 -42 -16 -48 -22 -7 -7 -9 -126 -8 -365 l3 -354
68 -3 67 -3 0 381 0 380 -22 -1 c-13 -1 -40 -6 -60 -13z"/>
<path d="M9292 4938 l3 -363 50 -17 c94 -31 85 -68 85 362 l0 380 -70 0 -70 0
2 -362z"/>
<path d="M9770 5814 l0 -384 65 0 65 0 -2 367 -3 366 -62 18 -63 17 0 -384z"/>
<path d="M8906 5851 c-20 -26 -47 -72 -61 -102 -23 -49 -25 -66 -25 -187 l0
-133 68 3 67 3 3 233 c1 139 -1 232 -7 232 -5 0 -25 -22 -45 -49z"/>
<path d="M8202 5049 c-35 -10 -36 -19 -8 -79 13 -29 47 -37 66 -15 10 12 10
24 0 60 -7 25 -15 45 -19 44 -3 0 -21 -5 -39 -10z"/>
<path d="M8342 4610 c-48 -35 -62 -72 -41 -109 11 -20 24 -27 56 -29 36 -3 46
2 82 36 47 45 52 72 16 107 -32 33 -63 31 -113 -5z"/>
<path d="M10680 4512 c0 -4 13 -26 28 -50 l28 -42 24 25 c14 15 20 29 14 34
-15 13 -94 42 -94 33z"/>
<path d="M8706 4305 c-16 -24 -15 -25 24 -51 42 -28 70 -26 70 4 0 16 -57 72
-73 72 -3 0 -12 -11 -21 -25z"/>
<path d="M8627 4197 c-14 -21 -13 -24 24 -50 44 -32 73 -32 77 -1 2 14 -8 29
-32 47 -42 33 -50 33 -69 4z"/>
<path d="M10317 4222 c-45 -49 10 -162 78 -162 76 0 88 85 22 158 -25 27 -77
30 -100 4z"/>
<path d="M8971 4129 c-6 -18 -11 -33 -11 -34 0 -1 20 -10 45 -20 36 -13 49
-14 60 -5 25 20 17 49 -17 70 -46 28 -64 25 -77 -11z"/>
<path d="M9317 3996 c-15 -27 -26 -50 -25 -51 2 -2 18 -6 36 -10 30 -6 32 -5
31 22 -1 15 -4 42 -8 58 l-6 30 -28 -49z"/>
</g>
</svg>
